<?xml version="1.0" encoding="UTF-8"?><svg id="Layer_1" xmlns="http://www.w3.org/2000/svg" xmlns:xlink="http://www.w3.org/1999/xlink" viewBox="0 0 34.13 34.13"><defs><style>.cls-1{fill:#fff;}.cls-2{clip-path:url(#clippath-2);}.cls-3{clip-path:url(#clippath-4);}.cls-4{clip-path:url(#clippath);}.cls-5{fill:none;}.cls-6{opacity:.71;}</style><clipPath id="clippath"><path class="cls-1" d="M99.35,53.86v17.04h3.95v-17.04c0-6.59,5.36-11.96,11.96-11.96s11.96,5.36,11.96,11.96v17.04h3.95v-17.04c0-8.77-7.14-15.91-15.91-15.91s-15.91,7.14-15.91,15.91"/></clipPath><clipPath id="clippath-2"><path class="cls-1" d="M99.35,53.86v17.04h3.95v-17.04c0-6.59,5.36-11.96,11.96-11.96s11.96,5.36,11.96,11.96v17.04h3.95v-17.04c0-8.77-7.14-15.91-15.91-15.91s-15.91,7.14-15.91,15.91"/></clipPath><clipPath id="clippath-4"><path class="cls-1" d="M85.79,53.86v17.04h3.95v-17.04c0-6.59,5.36-11.96,11.96-11.96s11.96,5.36,11.96,11.96v17.04h3.95v-17.04c0-8.77-7.14-15.91-15.91-15.91s-15.91,7.14-15.91,15.91"/></clipPath><clipPath id="clippath-6"><path class="cls-5" d="M272.46-109.82V-62.91h10.89v-46.91c0-18.16,14.77-32.93,32.92-32.93s32.93,14.77,32.93,32.93V-62.91h10.89v-46.91c0-24.16-19.65-43.81-43.81-43.81s-43.81,19.66-43.81,43.81"/></clipPath><clipPath id="clippath-8"><path class="cls-5" d="M272.46-109.82V-62.91h10.89v-46.91c0-18.16,14.77-32.93,32.92-32.93s32.93,14.77,32.93,32.93V-62.91h10.89v-46.91c0-24.16-19.65-43.81-43.81-43.81s-43.81,19.66-43.81,43.81"/></clipPath><clipPath id="clippath-10"><path class="cls-5" d="M235.14-109.82V-62.91h10.89v-46.91c0-18.16,14.77-32.93,32.92-32.93s32.93,14.77,32.93,32.93V-62.91h10.89v-46.91c0-24.16-19.66-43.81-43.81-43.81s-43.81,19.66-43.81,43.81"/></clipPath><clipPath id="clippath-12"><path class="cls-5" d="M1.47-153.3v46.91H12.35v-46.91c0-18.16,14.77-32.93,32.92-32.93s32.93,14.77,32.93,32.93v46.91h10.89v-46.91c0-24.16-19.65-43.81-43.81-43.81S1.47-177.45,1.47-153.3"/></clipPath><clipPath id="clippath-14"><path class="cls-5" d="M1.47-153.3v46.91H12.35v-46.91c0-18.16,14.77-32.93,32.92-32.93s32.93,14.77,32.93,32.93v46.91h10.89v-46.91c0-24.16-19.65-43.81-43.81-43.81S1.47-177.45,1.47-153.3"/></clipPath><clipPath id="clippath-16"><path class="cls-5" d="M-35.85-153.3v46.91h10.89v-46.91c0-18.16,14.77-32.93,32.92-32.93s32.93,14.77,32.93,32.93v46.91h10.89v-46.91c0-24.16-19.66-43.81-43.81-43.81s-43.81,19.66-43.81,43.81"/></clipPath></defs><path class="cls-1" d="M15.25,24.25h2.9v-7.25h2.02l.22-2.43h-2.24v-1.38c0-.57,.11-.8,.67-.8h1.57v-2.52h-2.01c-2.15,0-3.13,.95-3.13,2.77v1.94h-1.51v2.46h1.51v7.22Z"/><g class="cls-6"><g><path class="cls-1" d="M99.35,53.86v17.04h3.95v-17.04c0-6.59,5.36-11.96,11.96-11.96s11.96,5.36,11.96,11.96v17.04h3.95v-17.04c0-8.77-7.14-15.91-15.91-15.91s-15.91,7.14-15.91,15.91"/><g class="cls-4"><rect class="cls-1" x="-72.12" y="-48.24" width="361.24" height="255.7"/></g></g><g><path class="cls-1" d="M99.35,53.86v17.04h3.95v-17.04c0-6.59,5.36-11.96,11.96-11.96s11.96,5.36,11.96,11.96v17.04h3.95v-17.04c0-8.77-7.14-15.91-15.91-15.91s-15.91,7.14-15.91,15.91"/><g class="cls-2"><rect class="cls-1" x="-72.12" y="-48.24" width="361.24" height="255.7"/></g></g><g><path class="cls-1" d="M85.79,53.86v17.04h3.95v-17.04c0-6.59,5.36-11.96,11.96-11.96s11.96,5.36,11.96,11.96v17.04h3.95v-17.04c0-8.77-7.14-15.91-15.91-15.91s-15.91,7.14-15.91,15.91"/><g class="cls-3"><rect class="cls-1" x="-72.12" y="-48.24" width="361.24" height="255.7"/></g></g></g><path class="cls-1" d="M17.04,.53c9.12,0,16.54,7.42,16.54,16.54s-7.42,16.54-16.54,16.54S.5,26.18,.5,17.06,7.92,.53,17.04,.53M17.04,.03C7.63,.03,0,7.65,0,17.06s7.63,17.04,17.04,17.04,17.04-7.63,17.04-17.04S26.45,.03,17.04,.03h0Z"/></svg>