<?xml version="1.0" encoding="UTF-8"?><svg id="Layer_1" xmlns="http://www.w3.org/2000/svg" xmlns:xlink="http://www.w3.org/1999/xlink" viewBox="0 0 249.71 90.4"><defs><style>.cls-1{fill:#fff;}.cls-2{fill:none;}</style><clipPath id="clippath"><path class="cls-2" d="M-112.29,163.5v17.03h3.95v-17.03c0-6.59,5.36-11.95,11.95-11.95s11.95,5.36,11.95,11.95v17.03h3.95v-17.03c0-8.77-7.14-15.91-15.91-15.91s-15.91,7.14-15.91,15.91"/></clipPath><clipPath id="clippath-2"><path class="cls-2" d="M-112.29,163.5v17.03h3.95v-17.03c0-6.59,5.36-11.95,11.95-11.95s11.95,5.36,11.95,11.95v17.03h3.95v-17.03c0-8.77-7.14-15.91-15.91-15.91s-15.91,7.14-15.91,15.91"/></clipPath><clipPath id="clippath-4"><path class="cls-2" d="M-125.84,163.5v17.03h3.95v-17.03c0-6.59,5.36-11.95,11.95-11.95s11.95,5.36,11.95,11.95v17.03h3.95v-17.03c0-8.77-7.14-15.91-15.91-15.91s-15.91,7.14-15.91,15.91"/></clipPath><clipPath id="clippath-6"><path class="cls-2" d="M-98.49,43.65v46.91h10.89V43.65c0-18.16,14.77-32.93,32.92-32.93S-21.75,25.49-21.75,43.65v46.91H-10.87V43.65C-10.87,19.49-30.52-.16-54.68-.16s-43.81,19.66-43.81,43.81"/></clipPath><clipPath id="clippath-8"><path class="cls-2" d="M-98.49,43.65v46.91h10.89V43.65c0-18.16,14.77-32.93,32.92-32.93S-21.75,25.49-21.75,43.65v46.91H-10.87V43.65C-10.87,19.49-30.52-.16-54.68-.16s-43.81,19.66-43.81,43.81"/></clipPath><clipPath id="clippath-10"><path class="cls-2" d="M-135.81,43.65v46.91h10.89V43.65c0-18.16,14.77-32.93,32.92-32.93s32.93,14.77,32.93,32.93v46.91h10.89V43.65C-48.19,19.49-67.84-.16-92-.16s-43.81,19.66-43.81,43.81"/></clipPath><clipPath id="clippath-12"><path class="cls-2" d="M-369.49,.17V47.08h10.89V.17c0-18.16,14.77-32.93,32.92-32.93S-292.75-17.99-292.75,.17V47.08h10.89V.17c0-24.16-19.65-43.81-43.81-43.81S-369.49-23.99-369.49,.17"/></clipPath><clipPath id="clippath-14"><path class="cls-2" d="M-369.49,.17V47.08h10.89V.17c0-18.16,14.77-32.93,32.92-32.93S-292.75-17.99-292.75,.17V47.08h10.89V.17c0-24.16-19.65-43.81-43.81-43.81S-369.49-23.99-369.49,.17"/></clipPath><clipPath id="clippath-16"><path class="cls-2" d="M-406.81,.17V47.08h10.89V.17c0-18.16,14.77-32.93,32.92-32.93S-330.07-17.99-330.07,.17V47.08h10.89V.17c0-24.16-19.66-43.81-43.81-43.81S-406.81-23.99-406.81,.17"/></clipPath></defs><g><path class="cls-1" d="M155.94,68.69h-15.31c.17-1.06,.45-1.91,.89-2.49,.7-.93,1.77-1.4,3.2-1.4h1.19v-2.11h-1.25c-.18,0-.32,.03-.49,.04-.08-2.59-.64-4.5-1.71-5.67-1.91-2.08-4.27-3.16-5.16-3.54-.48,.2-3.42,1.65-5.25,3.57-1.13,1.18-1.71,3.08-1.8,5.64-.17,0-.32-.04-.5-.04h-1.25v2.11h1.19c1.43,0,2.5,.47,3.2,1.4,.43,.58,.72,1.43,.89,2.49h-14.48v-17.72h-2.67v19.93h41.99v-19.93h-2.67v17.72Zm-16.55-4.12c-.81,.91-1.31,2.29-1.53,4.12h-1.3c-.22-1.82-.73-3.2-1.53-4.12-.53-.61-1.23-1.06-2.06-1.37,.02-2.18,.4-3.72,1.16-4.59,.91-1.04,.9-.97,3.12-2.41,2.4,1.47,2.36,1.39,3.17,2.36,.69,.84,1.03,2.39,1.05,4.64-.84,.31-1.53,.76-2.07,1.37Z"/><polygon class="cls-1" points="162.21 53.89 162.21 67.17 162.21 70.9 164.88 70.9 164.88 67.36 164.88 54.08 164.88 50.97 162.21 50.97 162.21 53.89"/><path class="cls-1" d="M72.38,73.89c-.05,.07-.11,.13-.16,.19,.03-.04,.07-.07,.11-.11,.02-.03,.03-.06,.05-.09Z"/><path class="cls-1" d="M99.98,60.47c-1.11,1.25-1.66,3.36-1.66,6.32v1.89h-20.69c-.93,0-1.4-.51-1.4-1.52v-8.58l-2.73,.02v12.99c0,2.24-1.37,4.37-3.28,5.36-.09,.05-.18,.09-.27,.13-.17,.08-.35,.13-.52,.19-.54,.16-1.12,.23-1.73,.24-.36-.01-.7-.04-1.03-.09-.16-.03-.32-.07-.47-.11-.22-.05-.43-.11-.63-.19-.19-.07-.38-.14-.56-.23-.13-.06-.25-.13-.37-.2-.2-.11-.4-.23-.58-.36-.27-.2-.47-.44-.69-.68-.48,.44-.95,.89-1.41,1.34,.18,.2,.37,.4,.57,.58h0c.36,.31,.74,.6,1.15,.85,.02,.01,.04,.02,.06,.03,.39,.23,.79,.44,1.21,.6,.14,.06,.29,.09,.43,.13,.32,.11,.64,.22,.98,.28,.51,.1,1.03,.16,1.57,.16,4.58,0,8.14-3.73,8.14-8.31v-.56c.29,.05,.56,.13,.9,.13h35.69v-12.31h-7.41c-2.41,0-4.16,.63-5.27,1.88Zm9.94,.23v7.98h-8.87v-1.89c0-2.19,.35-3.76,1.06-4.69,.7-.93,1.77-1.4,3.2-1.4h4.61Z"/><path class="cls-1" d="M17.05,68.69H2.96v-1.89c0-2.19,.35-3.76,1.06-4.69,.7-.93,1.77-1.4,3.2-1.4h1.94v-2.11h-2c-2.41,0-4.16,.63-5.27,1.88-1.11,1.25-1.66,3.36-1.66,6.32v4.1H19.83v-19.93h-2.78v17.72Z"/><path class="cls-1" d="M63.63,70.9v-12.31h-7.41c-2.41,0-4.16,.63-5.27,1.88-1.11,1.25-1.66,3.36-1.66,6.32v1.89h-9.64v-1.89c0-2.96-.56-5.07-1.66-6.32-1.11-1.25-2.86-1.88-5.27-1.88h-7.41v12.31h11.61v.71c0,2.24-1.37,4.37-3.28,5.36-.09,.05-.18,.09-.27,.13-.17,.08-.35,.13-.52,.19-.54,.16-1.12,.23-1.73,.24-.36-.01-.7-.04-1.03-.09-.16-.03-.32-.07-.47-.11-.22-.05-.43-.11-.63-.19-.19-.07-.38-.14-.56-.23-.13-.06-.25-.13-.37-.2-.2-.11-.4-.23-.58-.36-.25-.18-.43-.41-.63-.63-.48,.43-.96,.88-1.43,1.32,.17,.19,.35,.38,.54,.55h0c.36,.31,.74,.6,1.15,.85,.02,.01,.04,.02,.06,.03,.39,.23,.79,.44,1.21,.6,.14,.06,.29,.09,.43,.13,.32,.11,.64,.22,.98,.28,.51,.1,1.03,.16,1.57,.16h0c4.58,0,8.14-3.73,8.14-8.31v-.43h24.13Zm-26.71-2.57v.36h-8.87v-7.98h4.61c1.43,0,2.5,.47,3.2,1.4,.7,.93,1.06,2.5,1.06,4.69v1.53Zm23.98,.36h-8.87v-1.89c0-2.19,.35-3.76,1.06-4.69,.7-.93,1.77-1.4,3.2-1.4h4.61v7.98Z"/></g><g><path class="cls-1" d="M71.19,37.34h2.99c.79,0,1.19-.39,1.22-1.18l.83-17.68,5.35,14.41c.26,.73,.79,1.1,1.57,1.1h2.52c.79,0,1.33-.37,1.61-1.1l5.35-14.37,.79,17.64c.03,.79,.43,1.18,1.22,1.18h4.27l-1.63-25.12c-.03-.79-.45-1.18-1.26-1.18h-4.17c-.79,0-1.31,.37-1.57,1.1l-5.79,15.63-5.83-15.63c-.29-.74-.83-1.1-1.62-1.1h-4.17c-.81,0-1.23,.39-1.26,1.18l-1.53,23.94c-.03,.79,.34,1.18,1.1,1.18Z"/><path class="cls-1" d="M104.42,37.34h16.97v-3.39c0-.79-.39-1.18-1.18-1.18h-11.14v-6.85h10.08c.79,0,1.18-.39,1.18-1.18v-2.05c0-.79-.39-1.18-1.18-1.18h-10.08v-5.91h10.75c.79,0,1.18-.39,1.18-1.18v-2.21c0-.79-.39-1.18-1.18-1.18h-15.39c-.79,0-1.18,.39-1.18,1.18v23.94c0,.79,.4,1.18,1.18,1.18Z"/><path class="cls-1" d="M126.74,37.34h3.46c.79,0,1.18-.39,1.18-1.18v-8.27c1,.21,1.89,.36,2.68,.43l4.92,7.99c.42,.68,1.02,1.02,1.81,1.02h5.09l-6.46-9.53c3.54-1.13,5.31-3.87,5.31-8.23,0-1.79-.29-3.28-.87-4.49-.58-1.21-1.39-2.11-2.44-2.72-1.05-.6-2.15-1.02-3.29-1.26-1.14-.24-2.46-.36-3.96-.36-2.73,0-5.22,.19-7.48,.55-.76,.13-1.14,.59-1.14,1.38v23.46c0,.79,.4,1.18,1.18,1.18Zm4.64-22.16c.63-.16,1.56-.24,2.8-.24,3.31,0,4.96,1.6,4.96,4.8,0,1.78-.44,3.01-1.32,3.66-.88,.66-2.11,.99-3.68,.99-.63,0-1.55-.08-2.76-.24V15.17Z"/><path class="cls-1" d="M31.73,12.22c0-.79-.39-1.18-1.18-1.18h-4.68v25.12c0,.79,.39,1.18,1.18,1.18h14.49c.79,0,1.18-.39,1.18-1.18v-3.39h-10.98V12.22Z"/><path class="cls-1" d="M14.3,11.04h-4.06c-.79,0-1.31,.37-1.57,1.1L.32,36.24c-.26,.73,0,1.1,.79,1.1h3.58c.79,0,1.3-.38,1.54-1.14l1.61-5.08v-.02c1.26,.38,2.65,.61,4.23,.61,1.67,0,3.14-.2,4.43-.59h0l1.69,5.12c.24,.73,.75,1.1,1.54,1.1h4.54L15.87,12.14c-.26-.74-.79-1.1-1.57-1.1Zm.41,15.41c-.71,.3-1.56,.45-2.56,.45s-1.85-.15-2.56-.45c-.1-.04-.17-.1-.26-.14l2.88-9.83,2.8,9.81c-.1,.05-.19,.12-.3,.16Z"/><path class="cls-1" d="M59.77,12.14c-.26-.74-.79-1.1-1.57-1.1h-4.06c-.79,0-1.31,.37-1.57,1.1l-8.35,24.09c-.26,.73,0,1.1,.79,1.1h3.58c.79,0,1.3-.38,1.54-1.14l1.61-5.08v-.02c1.26,.38,2.65,.61,4.23,.61,1.67,0,3.14-.2,4.43-.59h0l1.69,5.12c.24,.73,.75,1.1,1.54,1.1h4.54l-8.39-25.2Zm-1.16,14.31c-.71,.3-1.56,.45-2.56,.45s-1.85-.15-2.56-.45c-.1-.04-.17-.1-.26-.14l2.88-9.83,2.8,9.81c-.1,.05-.19,.12-.3,.16Z"/><path class="cls-1" d="M161.11,35.88l.83-17.68,5.35,14.41c.26,.73,.79,1.1,1.57,1.1h2.52c.79,0,1.33-.37,1.62-1.1l5.35-14.37,.79,17.64c.03,.79,.43,1.18,1.22,1.18h4.26l-1.62-25.12c-.03-.79-.45-1.18-1.26-1.18h-4.17c-.79,0-1.31,.37-1.57,1.1l-5.79,15.63-5.83-15.63c-.29-.74-.83-1.1-1.61-1.1h-4.17c-.81,0-1.23,.4-1.26,1.18l-1.53,23.94c-.03,.79,.34,1.18,1.1,1.18h2.99c.79,0,1.19-.39,1.22-1.18Z"/><path class="cls-1" d="M218.96,11.94c0-.79-.39-1.18-1.18-1.18h-4.68v25.12c0,.79,.39,1.18,1.18,1.18h14.49c.79,0,1.18-.4,1.18-1.18v-3.39h-10.98V11.94Z"/><path class="cls-1" d="M238.72,32.49V11.94c0-.79-.39-1.18-1.18-1.18h-4.68v25.12c0,.79,.39,1.18,1.18,1.18h14.49c.79,0,1.18-.4,1.18-1.18v-3.39h-10.98Z"/><path class="cls-1" d="M202.15,11.86c-.26-.74-.79-1.1-1.57-1.1h-4.06c-.79,0-1.31,.37-1.57,1.1l-8.35,24.09c-.26,.73,0,1.1,.79,1.1h3.58c.79,0,1.3-.38,1.54-1.14l1.61-5.08v-.02c1.26,.38,2.65,.61,4.23,.61,1.67,0,3.14-.2,4.43-.59h0l1.69,5.12c.24,.73,.75,1.1,1.54,1.1h4.54l-.36-1.1-8.03-24.09Zm-1.16,14.31c-.71,.3-1.56,.45-2.56,.45s-1.85-.15-2.56-.45c-.1-.04-.17-.1-.26-.14l2.88-9.83,2.8,9.81c-.1,.05-.19,.12-.3,.16Z"/></g></svg>