<?xml version="1.0" encoding="UTF-8"?><svg xmlns="http://www.w3.org/2000/svg" xmlns:xlink="http://www.w3.org/1999/xlink" viewBox="0 0 147.9 34.13"><defs><style>.cls-1{fill:url(#linear-gradient-2);}.cls-2{clip-path:url(#clippath-20);}.cls-3{clip-path:url(#clippath-11);}.cls-4{clip-path:url(#clippath-16);}.cls-5{fill:#fff;}.cls-6{clip-path:url(#clippath-2);}.cls-7{clip-path:url(#clippath-13);}.cls-8,.cls-9{isolation:isolate;}.cls-10{clip-path:url(#clippath-15);}.cls-11{clip-path:url(#clippath-6);}.cls-12{clip-path:url(#clippath-7);}.cls-13{clip-path:url(#clippath-4);}.cls-14{clip-path:url(#clippath-12);}.cls-15{clip-path:url(#clippath-22);}.cls-16{clip-path:url(#clippath-9);}.cls-17{clip-path:url(#clippath);}.cls-18{fill:none;}.cls-19{fill:#ce8129;}.cls-20{clip-path:url(#clippath-8);}.cls-21{clip-path:url(#clippath-18);}.cls-22{clip-path:url(#clippath-14);}.cls-23{fill:url(#linear-gradient-3);}.cls-24{clip-path:url(#clippath-17);}.cls-25{fill:url(#linear-gradient);}.cls-26{clip-path:url(#clippath-10);}.cls-27{fill:url(#linear-gradient-4);}.cls-28,.cls-9{mix-blend-mode:multiply;}.cls-29{opacity:.71;}</style><clipPath id="clippath"><path class="cls-5" d="M13.56,60.33v17.04h3.95v-17.04c0-6.59,5.36-11.96,11.96-11.96s11.96,5.36,11.96,11.96v17.04h3.95v-17.04c0-8.77-7.14-15.91-15.91-15.91s-15.91,7.14-15.91,15.91"/></clipPath><clipPath id="clippath-2"><path class="cls-5" d="M13.56,60.33v17.04h3.95v-17.04c0-6.59,5.36-11.96,11.96-11.96s11.96,5.36,11.96,11.96v17.04h3.95v-17.04c0-8.77-7.14-15.91-15.91-15.91s-15.91,7.14-15.91,15.91"/></clipPath><clipPath id="clippath-4"><path class="cls-5" d="M0,60.33v17.04H3.96v-17.04c0-6.59,5.36-11.96,11.96-11.96s11.96,5.36,11.96,11.96v17.04h3.95v-17.04c0-8.77-7.14-15.91-15.91-15.91S0,51.55,0,60.33"/></clipPath><linearGradient id="linear-gradient" x1="-1.41" y1="40.68" x2="42.96" y2="11.99" gradientTransform="matrix(1, 0, 0, 1, 0, 0)" gradientUnits="userSpaceOnUse"><stop offset=".27" stop-color="#f8d038"/><stop offset="1" stop-color="#f27123"/></linearGradient><clipPath id="clippath-6"><path class="cls-18" d="M13.56,16.5v17.03h3.95V16.5c0-6.59,5.36-11.95,11.95-11.95s11.95,5.36,11.95,11.95v17.03h3.95V16.5c0-8.77-7.14-15.91-15.91-15.91s-15.91,7.14-15.91,15.91"/></clipPath><clipPath id="clippath-7"><rect class="cls-18" x="-157.86" y="-85.57" width="361.14" height="255.63"/></clipPath><clipPath id="clippath-8"><rect class="cls-18" x="40.73" y="19.51" width="6" height="16.73"/></clipPath><clipPath id="clippath-9"><rect class="cls-18" x="41.14" y="19.69" width="4.31" height="13.98"/></clipPath><clipPath id="clippath-10"><path class="cls-18" d="M13.56,16.5v17.03h3.95V16.5c0-6.59,5.36-11.95,11.95-11.95s11.95,5.36,11.95,11.95v17.03h3.95V16.5c0-8.77-7.14-15.91-15.91-15.91s-15.91,7.14-15.91,15.91"/></clipPath><clipPath id="clippath-11"><rect class="cls-18" x="-157.86" y="-85.57" width="361.14" height="255.63"/></clipPath><clipPath id="clippath-12"><rect class="cls-18" x="16.28" y="4.5" width="7.29" height="4.29"/></clipPath><clipPath id="clippath-13"><rect class="cls-18" x="16.51" y="4.64" width="6.81" height="4"/></clipPath><clipPath id="clippath-14"><path class="cls-18" d="M0,16.5v17.03H3.96V16.5c0-6.59,5.36-11.95,11.95-11.95s11.95,5.36,11.95,11.95v17.03h3.95V16.5C31.82,7.73,24.68,.59,15.91,.59S0,7.73,0,16.5"/></clipPath><clipPath id="clippath-15"><rect class="cls-18" x="-157.86" y="-85.57" width="361.14" height="255.63"/></clipPath><clipPath id="clippath-16"><rect class="cls-18" x="27" y="20.37" width="6" height="4.72"/></clipPath><clipPath id="clippath-17"><rect class="cls-18" x="27.14" y="20.58" width="5" height="4.27"/></clipPath><linearGradient id="linear-gradient-2" x1="-9.28" y1="25.55" x2="19.42" y2="25.55" gradientTransform="matrix(1, 0, 0, 1, 0, 0)" gradientUnits="userSpaceOnUse"><stop offset=".37" stop-color="#f8d038"/><stop offset="1" stop-color="#f27123"/></linearGradient><linearGradient id="linear-gradient-3" x1="-8.47" y1="37.38" x2="28.21" y2="12.38" xlink:href="#linear-gradient-2"/><linearGradient id="linear-gradient-4" x1="13.67" x2="45.36" xlink:href="#linear-gradient-2"/><clipPath id="clippath-18"><path class="cls-5" d="M-145.76,60.33v17.04h3.95v-17.04c0-6.59,5.36-11.96,11.96-11.96s11.96,5.36,11.96,11.96v17.04h3.95v-17.04c0-8.77-7.14-15.91-15.91-15.91s-15.91,7.14-15.91,15.91"/></clipPath><clipPath id="clippath-20"><path class="cls-5" d="M-145.76,60.33v17.04h3.95v-17.04c0-6.59,5.36-11.96,11.96-11.96s11.96,5.36,11.96,11.96v17.04h3.95v-17.04c0-8.77-7.14-15.91-15.91-15.91s-15.91,7.14-15.91,15.91"/></clipPath><clipPath id="clippath-22"><path class="cls-5" d="M-159.31,60.33v17.04h3.95v-17.04c0-6.59,5.36-11.96,11.96-11.96s11.96,5.36,11.96,11.96v17.04h3.95v-17.04c0-8.77-7.14-15.91-15.91-15.91s-15.91,7.14-15.91,15.91"/></clipPath><clipPath id="clippath-24"><path class="cls-18" d="M27.36-103.35V-56.44h10.89v-46.91c0-18.16,14.77-32.93,32.92-32.93s32.93,14.77,32.93,32.93V-56.44h10.89v-46.91c0-24.16-19.65-43.81-43.81-43.81s-43.81,19.66-43.81,43.81"/></clipPath><clipPath id="clippath-26"><path class="cls-18" d="M27.36-103.35V-56.44h10.89v-46.91c0-18.16,14.77-32.93,32.92-32.93s32.93,14.77,32.93,32.93V-56.44h10.89v-46.91c0-24.16-19.65-43.81-43.81-43.81s-43.81,19.66-43.81,43.81"/></clipPath><clipPath id="clippath-28"><path class="cls-18" d="M-9.96-103.35V-56.44H.92v-46.91c0-18.16,14.77-32.93,32.92-32.93s32.93,14.77,32.93,32.93V-56.44h10.89v-46.91c0-24.16-19.66-43.81-43.81-43.81S-9.96-127.5-9.96-103.35"/></clipPath><clipPath id="clippath-30"><path class="cls-18" d="M-243.64-146.83v46.91h10.89v-46.91c0-18.16,14.77-32.93,32.92-32.93s32.93,14.77,32.93,32.93v46.91h10.89v-46.91c0-24.16-19.65-43.81-43.81-43.81s-43.81,19.66-43.81,43.81"/></clipPath><clipPath id="clippath-32"><path class="cls-18" d="M-243.64-146.83v46.91h10.89v-46.91c0-18.16,14.77-32.93,32.92-32.93s32.93,14.77,32.93,32.93v46.91h10.89v-46.91c0-24.16-19.65-43.81-43.81-43.81s-43.81,19.66-43.81,43.81"/></clipPath><clipPath id="clippath-34"><path class="cls-18" d="M-280.96-146.83v46.91h10.89v-46.91c0-18.16,14.77-32.93,32.92-32.93s32.93,14.77,32.93,32.93v46.91h10.89v-46.91c0-24.16-19.66-43.81-43.81-43.81s-43.81,19.66-43.81,43.81"/></clipPath></defs><g class="cls-8"><g id="Layer_1"><g class="cls-29"><g><path class="cls-5" d="M13.56,60.33v17.04h3.95v-17.04c0-6.59,5.36-11.96,11.96-11.96s11.96,5.36,11.96,11.96v17.04h3.95v-17.04c0-8.77-7.14-15.91-15.91-15.91s-15.91,7.14-15.91,15.91"/><g class="cls-17"><rect class="cls-5" x="-157.9" y="-41.78" width="361.24" height="255.7"/></g></g><g><path class="cls-5" d="M13.56,60.33v17.04h3.95v-17.04c0-6.59,5.36-11.96,11.96-11.96s11.96,5.36,11.96,11.96v17.04h3.95v-17.04c0-8.77-7.14-15.91-15.91-15.91s-15.91,7.14-15.91,15.91"/><g class="cls-6"><rect class="cls-5" x="-157.9" y="-41.78" width="361.24" height="255.7"/></g></g><g><path class="cls-5" d="M0,60.33v17.04H3.96v-17.04c0-6.59,5.36-11.96,11.96-11.96s11.96,5.36,11.96,11.96v17.04h3.95v-17.04c0-8.77-7.14-15.91-15.91-15.91S0,51.55,0,60.33"/><g class="cls-13"><rect class="cls-5" x="-157.9" y="-41.78" width="361.24" height="255.7"/></g></g></g><g><g class="cls-28"><g><path class="cls-5" d="M113.85,25.51h-5.56c.06-.39,.16-.69,.32-.9,.26-.34,.64-.51,1.16-.51h.43v-.77h-.46c-.06,0-.12,.01-.18,.01-.03-.94-.23-1.63-.62-2.06-.69-.76-1.55-1.15-1.87-1.29-.17,.07-1.24,.6-1.91,1.3-.41,.43-.62,1.12-.65,2.05-.06,0-.12-.01-.18-.01h-.46v.77h.43c.52,0,.91,.17,1.16,.51,.16,.21,.26,.52,.32,.9h-5.26v-6.44h-.97v7.24h15.25v-7.24h-.97v6.44Zm-6.01-1.49c-.29,.33-.48,.83-.56,1.49h-.47c-.08-.66-.26-1.16-.56-1.49-.19-.22-.45-.38-.75-.5,0-.79,.15-1.35,.42-1.67,.33-.38,.33-.35,1.13-.88,.87,.53,.86,.5,1.15,.86,.25,.3,.38,.87,.38,1.68-.3,.11-.56,.28-.75,.5Z"/><polygon class="cls-5" points="116.12 20.13 116.12 24.95 116.12 26.31 117.09 26.31 117.09 25.02 117.09 20.2 117.09 19.07 116.12 19.07 116.12 20.13"/><path class="cls-5" d="M83.5,27.39s-.04,.05-.06,.07c.01-.01,.03-.02,.04-.04,0,0,.01-.02,.02-.03Z"/><path class="cls-5" d="M93.52,22.52c-.4,.46-.6,1.22-.6,2.3v.69h-7.52c-.34,0-.51-.18-.51-.55v-3.11h-.99v4.73c0,.81-.5,1.59-1.19,1.95-.03,.02-.06,.03-.1,.05-.06,.03-.13,.05-.19,.07-.2,.06-.41,.08-.63,.09-.13,0-.25-.01-.37-.03-.06-.01-.12-.03-.17-.04-.08-.02-.16-.04-.23-.07-.07-.03-.14-.05-.2-.08-.05-.02-.09-.05-.13-.07-.07-.04-.15-.08-.21-.13-.1-.07-.17-.16-.25-.25-.17,.16-.34,.32-.51,.49,.07,.07,.13,.15,.21,.21h0c.13,.11,.27,.22,.42,.31h.02c.14,.1,.29,.17,.44,.23,.05,.02,.11,.03,.16,.05,.12,.04,.23,.08,.36,.1,.18,.04,.37,.06,.57,.06,1.66,0,2.96-1.35,2.96-3.02v-.2c.11,.02,.2,.05,.33,.05h12.96v-4.47h-2.69c-.87,0-1.51,.23-1.91,.68Zm3.61,.08v2.9h-3.22v-.69c0-.8,.13-1.37,.38-1.7,.25-.34,.64-.51,1.16-.51h1.68Z"/><path class="cls-5" d="M63.4,25.51h-5.12v-.69c0-.8,.13-1.37,.38-1.7,.26-.34,.64-.51,1.16-.51h.7v-.77h-.73c-.87,0-1.51,.23-1.91,.68-.4,.46-.6,1.22-.6,2.3v1.49h7.12v-7.24h-1.01v6.44Z"/><path class="cls-5" d="M80.32,26.31v-4.47h-2.69c-.87,0-1.51,.23-1.91,.68-.4,.46-.6,1.22-.6,2.3v.69h-3.5v-.69c0-1.08-.2-1.84-.6-2.3-.4-.46-1.04-.68-1.91-.68h-2.69v4.47h4.21v.26c0,.81-.5,1.59-1.19,1.95-.03,.02-.07,.03-.1,.05-.06,.03-.13,.05-.19,.07-.2,.06-.41,.08-.63,.09-.13,0-.25-.01-.37-.03-.06-.01-.12-.03-.17-.04-.08-.02-.16-.04-.23-.07-.07-.03-.14-.05-.2-.08-.05-.02-.09-.05-.13-.07-.07-.04-.15-.08-.21-.13-.09-.07-.16-.15-.23-.23-.18,.16-.35,.32-.52,.48,.06,.07,.13,.14,.2,.2h0c.13,.11,.27,.22,.42,.31h.02c.14,.1,.29,.17,.44,.23,.05,.02,.11,.03,.16,.05,.12,.04,.23,.08,.36,.1,.18,.04,.37,.06,.57,.06h0c1.66,0,2.96-1.35,2.96-3.02v-.16h8.76Zm-9.7-.93v.13h-3.22v-2.9h1.68c.52,0,.91,.17,1.16,.51,.26,.34,.38,.91,.38,1.7v.56Zm8.71,.13h-3.22v-.69c0-.8,.13-1.37,.38-1.7,.25-.34,.64-.51,1.16-.51h1.68v2.9Z"/></g><g><path class="cls-5" d="M83.07,14.12h1.09c.29,0,.43-.14,.44-.43l.3-6.42,1.94,5.23c.1,.27,.29,.4,.57,.4h.92c.29,0,.48-.13,.59-.4l1.94-5.22,.29,6.4c0,.29,.16,.43,.44,.43h1.55l-.59-9.12c0-.29-.16-.43-.46-.43h-1.52c-.29,0-.48,.13-.57,.4l-2.1,5.68-2.12-5.68c-.11-.27-.3-.4-.59-.4h-1.52c-.3,0-.45,.14-.46,.43l-.56,8.69c0,.29,.12,.43,.4,.43Z"/><path class="cls-5" d="M95.13,14.12h6.16v-1.23c0-.29-.14-.43-.43-.43h-4.05v-2.49h3.66c.29,0,.43-.14,.43-.43v-.74c0-.29-.14-.43-.43-.43h-3.66v-2.14h3.9c.29,0,.43-.14,.43-.43v-.8c0-.29-.14-.43-.43-.43h-5.59c-.29,0-.43,.14-.43,.43V13.69c0,.29,.14,.43,.43,.43Z"/><path class="cls-5" d="M103.24,14.12h1.26c.29,0,.43-.14,.43-.43v-3c.36,.08,.69,.13,.97,.16l1.79,2.9c.15,.25,.37,.37,.66,.37h1.85l-2.35-3.46c1.29-.41,1.93-1.41,1.93-2.99,0-.65-.11-1.19-.31-1.63-.21-.44-.51-.77-.89-.99-.38-.22-.78-.37-1.19-.46-.41-.09-.89-.13-1.44-.13-.99,0-1.9,.07-2.72,.2-.28,.05-.41,.21-.41,.5V13.69c0,.29,.14,.43,.43,.43Zm1.69-8.05c.23-.06,.57-.09,1.02-.09,1.2,0,1.8,.58,1.8,1.74,0,.65-.16,1.09-.48,1.33-.32,.24-.76,.36-1.34,.36-.23,0-.56-.03-1-.09v-3.26Z"/><path class="cls-5" d="M68.74,5c0-.29-.14-.43-.43-.43h-1.7V13.69c0,.29,.14,.43,.43,.43h5.26c.29,0,.43-.14,.43-.43v-1.23h-3.99V5Z"/><path class="cls-5" d="M62.41,4.57h-1.47c-.29,0-.48,.13-.57,.4l-3.03,8.75c-.1,.27,0,.4,.29,.4h1.3c.29,0,.47-.14,.56-.41l.59-1.84h0c.46,.13,.96,.21,1.54,.21,.61,0,1.14-.07,1.61-.21h0l.61,1.86c.09,.27,.27,.4,.56,.4h1.65l-3.05-9.15c-.1-.27-.29-.4-.57-.4Zm.15,5.6c-.26,.11-.57,.16-.93,.16s-.67-.05-.93-.16c-.04-.01-.06-.04-.1-.05l1.05-3.57,1.02,3.56s-.07,.04-.11,.06Z"/><path class="cls-5" d="M78.92,4.97c-.1-.27-.29-.4-.57-.4h-1.47c-.29,0-.48,.13-.57,.4l-3.03,8.75c-.1,.27,0,.4,.29,.4h1.3c.29,0,.47-.14,.56-.41l.59-1.84h0c.46,.13,.96,.21,1.54,.21,.6,0,1.14-.07,1.61-.21h0l.61,1.86c.09,.27,.27,.4,.56,.4h1.65l-3.05-9.15Zm-.42,5.2c-.26,.11-.57,.16-.93,.16s-.67-.05-.93-.16c-.04-.01-.06-.04-.09-.05l1.05-3.57,1.02,3.56s-.07,.04-.11,.06Z"/><path class="cls-5" d="M115.72,13.59l.3-6.42,1.94,5.23c.1,.27,.29,.4,.57,.4h.91c.29,0,.48-.13,.59-.4l1.94-5.22,.29,6.4c0,.29,.16,.43,.44,.43h1.55l-.59-9.12c0-.29-.16-.43-.46-.43h-1.52c-.29,0-.48,.13-.57,.4l-2.1,5.68-2.12-5.68c-.11-.27-.3-.4-.59-.4h-1.52c-.3,0-.45,.14-.46,.43l-.56,8.69c0,.29,.12,.43,.4,.43h1.09c.29,0,.43-.14,.44-.43Z"/><path class="cls-5" d="M136.73,4.89c0-.29-.14-.43-.43-.43h-1.7V13.59c0,.29,.14,.43,.43,.43h5.26c.29,0,.43-.14,.43-.43v-1.23h-3.99V4.89Z"/><path class="cls-5" d="M143.91,12.36V4.89c0-.29-.14-.43-.43-.43h-1.7V13.59c0,.29,.14,.43,.43,.43h5.26c.29,0,.43-.14,.43-.43v-1.23h-3.99Z"/><path class="cls-5" d="M130.63,4.87c-.1-.27-.29-.4-.57-.4h-1.47c-.29,0-.48,.13-.57,.4l-3.03,8.75c-.1,.27,0,.4,.29,.4h1.3c.29,0,.47-.14,.56-.41l.59-1.84h0c.46,.13,.96,.21,1.54,.21,.61,0,1.14-.07,1.61-.21h0l.61,1.86c.09,.27,.27,.4,.56,.4h1.65l-.13-.4-2.92-8.75Zm-.42,5.2c-.26,.11-.57,.16-.93,.16s-.67-.05-.93-.16c-.04-.01-.06-.04-.1-.05l1.05-3.57,1.02,3.56s-.07,.04-.11,.06Z"/></g></g><g><path class="cls-25" d="M13.67,16.5v16.97h3.94V16.5c0-6.57,5.34-11.91,11.91-11.91s11.91,5.34,11.91,11.91v16.97h3.94V16.5c0-8.74-7.11-15.85-15.85-15.85s-15.85,7.11-15.85,15.85"/><g class="cls-29"><g class="cls-11"><g class="cls-12"><g class="cls-9"><g class="cls-20"><g class="cls-16"><path class="cls-19" d="M41.14,19.69v8.28c1.42,2.41,2.23,5.22,2.23,8.22h3.16v-1.99c0-9.5-3.16-12.59-5.39-14.5"/></g></g></g></g></g><g class="cls-26"><g class="cls-3"><g class="cls-9"><g class="cls-14"><g class="cls-7"><path class="cls-19" d="M18.35,4.64c-.66,.61-1.27,1.26-1.84,1.96,1.69,.41,3.26,1.1,4.66,2.04,.65-.67,1.38-1.26,2.14-1.79-1.48-1.02-3.16-1.78-4.97-2.2"/></g></g></g></g></g><g class="cls-22"><g class="cls-10"><g class="cls-9"><g class="cls-4"><g class="cls-24"><path class="cls-19" d="M32.78,24.84l-.57-3.54-5.07-.73v2.83c1.73-.16,4.06,.32,5.64,1.43"/></g></g></g></g></g></g><path class="cls-1" d="M0,33.47H3.94c0-6.56,5.34-11.9,11.9-11.9s11.91,5.34,11.91,11.9h3.94c0-8.74-7.11-15.84-15.84-15.84S0,24.74,0,33.47"/><path class="cls-23" d="M0,16.5v16.97H3.94V16.5c0-6.57,5.34-11.91,11.91-11.91s11.91,5.34,11.91,11.91v16.85s.02,.08,.03,.12h3.91V16.5C31.7,7.76,24.59,.65,15.85,.65S0,7.76,0,16.5"/><path class="cls-27" d="M13.67,33.47h3.94c0-6.56,5.34-11.9,11.9-11.9s11.91,5.34,11.91,11.9h3.94c0-8.74-7.11-15.84-15.84-15.84s-15.84,7.11-15.84,15.84"/></g></g><g class="cls-29"><g><path class="cls-5" d="M-145.76,60.33v17.04h3.95v-17.04c0-6.59,5.36-11.96,11.96-11.96s11.96,5.36,11.96,11.96v17.04h3.95v-17.04c0-8.77-7.14-15.91-15.91-15.91s-15.91,7.14-15.91,15.91"/><g class="cls-21"><rect class="cls-5" x="-317.22" y="-41.78" width="361.24" height="255.7"/></g></g><g><path class="cls-5" d="M-145.76,60.33v17.04h3.95v-17.04c0-6.59,5.36-11.96,11.96-11.96s11.96,5.36,11.96,11.96v17.04h3.95v-17.04c0-8.77-7.14-15.91-15.91-15.91s-15.91,7.14-15.91,15.91"/><g class="cls-2"><rect class="cls-5" x="-317.22" y="-41.78" width="361.24" height="255.7"/></g></g><g><path class="cls-5" d="M-159.31,60.33v17.04h3.95v-17.04c0-6.59,5.36-11.96,11.96-11.96s11.96,5.36,11.96,11.96v17.04h3.95v-17.04c0-8.77-7.14-15.91-15.91-15.91s-15.91,7.14-15.91,15.91"/><g class="cls-15"><rect class="cls-5" x="-317.22" y="-41.78" width="361.24" height="255.7"/></g></g></g></g></g></svg>