<?xml version="1.0" encoding="UTF-8"?><svg id="Layer_1" xmlns="http://www.w3.org/2000/svg" xmlns:xlink="http://www.w3.org/1999/xlink" viewBox="0 0 34.13 34.13"><defs><style>.cls-1{clip-path:url(#clippath-16);}.cls-2{fill:#fff;}.cls-3{clip-path:url(#clippath-2);}.cls-4{clip-path:url(#clippath-4);}.cls-5{clip-path:url(#clippath-12);}.cls-6{clip-path:url(#clippath);}.cls-7{fill:none;}.cls-8{clip-path:url(#clippath-14);}.cls-9{opacity:.71;}</style><clipPath id="clippath"><path class="cls-2" d="M172.88,53.86v17.04h3.95v-17.04c0-6.59,5.36-11.96,11.96-11.96s11.96,5.36,11.96,11.96v17.04h3.95v-17.04c0-8.77-7.14-15.91-15.91-15.91s-15.91,7.14-15.91,15.91"/></clipPath><clipPath id="clippath-2"><path class="cls-2" d="M172.88,53.86v17.04h3.95v-17.04c0-6.59,5.36-11.96,11.96-11.96s11.96,5.36,11.96,11.96v17.04h3.95v-17.04c0-8.77-7.14-15.91-15.91-15.91s-15.91,7.14-15.91,15.91"/></clipPath><clipPath id="clippath-4"><path class="cls-2" d="M159.33,53.86v17.04h3.95v-17.04c0-6.59,5.36-11.96,11.96-11.96s11.96,5.36,11.96,11.96v17.04h3.95v-17.04c0-8.77-7.14-15.91-15.91-15.91s-15.91,7.14-15.91,15.91"/></clipPath><clipPath id="clippath-6"><path class="cls-7" d="M172.87,10.03V27.06h3.95V10.03c0-6.59,5.36-11.95,11.95-11.95s11.95,5.36,11.95,11.95V27.06h3.95V10.03c0-8.77-7.14-15.91-15.91-15.91s-15.91,7.14-15.91,15.91"/></clipPath><clipPath id="clippath-8"><path class="cls-7" d="M172.87,10.03V27.06h3.95V10.03c0-6.59,5.36-11.95,11.95-11.95s11.95,5.36,11.95,11.95V27.06h3.95V10.03c0-8.77-7.14-15.91-15.91-15.91s-15.91,7.14-15.91,15.91"/></clipPath><clipPath id="clippath-10"><path class="cls-7" d="M159.33,10.03V27.06h3.95V10.03c0-6.59,5.36-11.95,11.95-11.95s11.95,5.36,11.95,11.95V27.06h3.95V10.03c0-8.77-7.14-15.91-15.91-15.91s-15.91,7.14-15.91,15.91"/></clipPath><clipPath id="clippath-12"><path class="cls-2" d="M13.56,53.86v17.04h3.95v-17.04c0-6.59,5.36-11.96,11.96-11.96s11.96,5.36,11.96,11.96v17.04h3.95v-17.04c0-8.77-7.14-15.91-15.91-15.91s-15.91,7.14-15.91,15.91"/></clipPath><clipPath id="clippath-14"><path class="cls-2" d="M13.56,53.86v17.04h3.95v-17.04c0-6.59,5.36-11.96,11.96-11.96s11.96,5.36,11.96,11.96v17.04h3.95v-17.04c0-8.77-7.14-15.91-15.91-15.91s-15.91,7.14-15.91,15.91"/></clipPath><clipPath id="clippath-16"><path class="cls-2" d="M0,53.86v17.04H3.96v-17.04c0-6.59,5.36-11.96,11.96-11.96s11.96,5.36,11.96,11.96v17.04h3.95v-17.04c0-8.77-7.14-15.91-15.91-15.91S0,45.08,0,53.86"/></clipPath><clipPath id="clippath-18"><path class="cls-7" d="M186.67-109.82V-62.91h10.89v-46.91c0-18.16,14.77-32.93,32.92-32.93s32.93,14.77,32.93,32.93V-62.91h10.89v-46.91c0-24.16-19.65-43.81-43.81-43.81s-43.81,19.66-43.81,43.81"/></clipPath><clipPath id="clippath-20"><path class="cls-7" d="M186.67-109.82V-62.91h10.89v-46.91c0-18.16,14.77-32.93,32.92-32.93s32.93,14.77,32.93,32.93V-62.91h10.89v-46.91c0-24.16-19.65-43.81-43.81-43.81s-43.81,19.66-43.81,43.81"/></clipPath><clipPath id="clippath-22"><path class="cls-7" d="M149.35-109.82V-62.91h10.89v-46.91c0-18.16,14.77-32.93,32.92-32.93s32.93,14.77,32.93,32.93V-62.91h10.89v-46.91c0-24.16-19.66-43.81-43.81-43.81s-43.81,19.66-43.81,43.81"/></clipPath><clipPath id="clippath-24"><path class="cls-7" d="M-84.32-153.3v46.91h10.89v-46.91c0-18.16,14.77-32.93,32.92-32.93S-7.58-171.45-7.58-153.3v46.91H3.31v-46.91c0-24.16-19.65-43.81-43.81-43.81s-43.81,19.66-43.81,43.81"/></clipPath><clipPath id="clippath-26"><path class="cls-7" d="M-84.32-153.3v46.91h10.89v-46.91c0-18.16,14.77-32.93,32.92-32.93S-7.58-171.45-7.58-153.3v46.91H3.31v-46.91c0-24.16-19.65-43.81-43.81-43.81s-43.81,19.66-43.81,43.81"/></clipPath><clipPath id="clippath-28"><path class="cls-7" d="M-121.64-153.3v46.91h10.89v-46.91c0-18.16,14.77-32.93,32.92-32.93s32.93,14.77,32.93,32.93v46.91h10.89v-46.91c0-24.16-19.66-43.81-43.81-43.81s-43.81,19.66-43.81,43.81"/></clipPath></defs><g class="cls-9"><g><path class="cls-2" d="M172.88,53.86v17.04h3.95v-17.04c0-6.59,5.36-11.96,11.96-11.96s11.96,5.36,11.96,11.96v17.04h3.95v-17.04c0-8.77-7.14-15.91-15.91-15.91s-15.91,7.14-15.91,15.91"/><g class="cls-6"><rect class="cls-2" x="1.42" y="-48.24" width="361.24" height="255.7"/></g></g><g><path class="cls-2" d="M172.88,53.86v17.04h3.95v-17.04c0-6.59,5.36-11.96,11.96-11.96s11.96,5.36,11.96,11.96v17.04h3.95v-17.04c0-8.77-7.14-15.91-15.91-15.91s-15.91,7.14-15.91,15.91"/><g class="cls-3"><rect class="cls-2" x="1.42" y="-48.24" width="361.24" height="255.7"/></g></g><g><path class="cls-2" d="M159.33,53.86v17.04h3.95v-17.04c0-6.59,5.36-11.96,11.96-11.96s11.96,5.36,11.96,11.96v17.04h3.95v-17.04c0-8.77-7.14-15.91-15.91-15.91s-15.91,7.14-15.91,15.91"/><g class="cls-4"><rect class="cls-2" x="1.42" y="-48.24" width="361.24" height="255.7"/></g></g></g><g class="cls-9"><g><path class="cls-2" d="M13.56,53.86v17.04h3.95v-17.04c0-6.59,5.36-11.96,11.96-11.96s11.96,5.36,11.96,11.96v17.04h3.95v-17.04c0-8.77-7.14-15.91-15.91-15.91s-15.91,7.14-15.91,15.91"/><g class="cls-5"><rect class="cls-2" x="-157.9" y="-48.24" width="361.24" height="255.7"/></g></g><g><path class="cls-2" d="M13.56,53.86v17.04h3.95v-17.04c0-6.59,5.36-11.96,11.96-11.96s11.96,5.36,11.96,11.96v17.04h3.95v-17.04c0-8.77-7.14-15.91-15.91-15.91s-15.91,7.14-15.91,15.91"/><g class="cls-8"><rect class="cls-2" x="-157.9" y="-48.24" width="361.24" height="255.7"/></g></g><g><path class="cls-2" d="M0,53.86v17.04H3.96v-17.04c0-6.59,5.36-11.96,11.96-11.96s11.96,5.36,11.96,11.96v17.04h3.95v-17.04c0-8.77-7.14-15.91-15.91-15.91S0,45.08,0,53.86"/><g class="cls-1"><rect class="cls-2" x="-157.9" y="-48.24" width="361.24" height="255.7"/></g></g></g><path class="cls-2" d="M9.31,21.89c1.4,.9,3.07,1.42,4.86,1.42,5.88,0,9.21-4.97,9.01-9.43,.62-.45,1.16-1,1.58-1.64-.57,.25-1.18,.42-1.82,.5,.65-.39,1.16-1.01,1.39-1.75-.61,.36-1.29,.63-2.01,.77-.58-.62-1.4-1-2.31-1-2.05,0-3.55,1.91-3.09,3.89-2.63-.13-4.97-1.39-6.53-3.31-.83,1.42-.43,3.29,.98,4.23-.52-.02-1.01-.16-1.44-.4-.03,1.47,1.02,2.84,2.54,3.15-.45,.12-.93,.15-1.43,.05,.4,1.26,1.57,2.18,2.96,2.2-1.33,1.04-3.01,1.51-4.69,1.31Z"/><path class="cls-2" d="M17.04,.53c9.12,0,16.54,7.42,16.54,16.54s-7.42,16.54-16.54,16.54S.5,26.18,.5,17.06,7.92,.53,17.04,.53M17.04,.03C7.63,.03,0,7.65,0,17.06s7.63,17.04,17.04,17.04,17.04-7.63,17.04-17.04S26.45,.03,17.04,.03h0Z"/></svg>