<svg id="Layer_1" data-name="Layer 1" xmlns="http://www.w3.org/2000/svg" viewBox="0 0 408.95 408.93"><defs><style>.cls-1{fill:#44263a;}</style></defs><path class="cls-1" d="M407.33,43.3a16.09,16.09,0,0,0-17.63-8.67A15.8,15.8,0,0,0,377.06,50c-.1,14.37,0,28.73,0,44-1.17-1.47-1.89-2.26-2.49-3.14Q335.47,33.36,269.7,10.73A198.71,198.71,0,0,0,188.8.66Q115.42,6.48,62.45,57.53C30.71,88.16,10.73,125.32,3.26,168.92c-8.44,49.3-.63,96,25,139,30,50.48,74.05,82.63,131.36,96,9.26,2.17,18.87,2.87,28.32,4.27,1,.15,2,.48,3,.73H217.3c1.56-.24,3.12-.59,4.69-.71,8.49-.64,14.91-7,15.23-15.05a15.9,15.9,0,0,0-13.88-16.73,50.27,50.27,0,0,0-10,.11,153,153,0,0,1-43.59-3.25C126,364,90.9,341.11,64.78,304.9c-29.31-40.64-38.81-86-29-135,8.81-44,32.11-79.28,68.56-105.32,44.84-32,94.36-40.28,147.35-25.77C287.09,48.5,316.17,68.4,339.22,97c4.85,6,9,12.58,14.08,19.69h-5.61c-12.91,0-25.81-.07-38.72,0a15.93,15.93,0,0,0-.21,31.85c16.9.11,33.8.36,50.69-.08,17.53-.45,31.58-8.29,40.91-23.1,3.93-6.22,5.79-13.75,8.59-20.69V46.34C408.4,45.33,407.84,44.32,407.33,43.3Z"/><path class="cls-1" d="M167.59,218.73q-18.33,18.33-36.68,36.67c-4.84,4.81-6.84,10.43-4.8,17,3.7,12,17.94,15.1,27.23,5.89q31-30.78,61.81-61.77a17.69,17.69,0,0,0,5.38-13.23c-.11-20.89-.05-41.77-.05-62.65q0-31.72,0-63.45c0-5.74-2.15-10.4-6.86-13.64a15.14,15.14,0,0,0-16.23-1.16c-5.85,3-8.82,7.89-8.83,14.47q0,58.26,0,116.52a9,9,0,0,1-2.93,7.31C179.53,206.58,173.61,212.71,167.59,218.73Z"/><path class="cls-1" d="M392.14,229.05c-7.44-1.36-15.05,2.68-17.45,9.93a151,151,0,0,0-5,19.19c-1.39,7.29,3.26,14.58,10.14,17,7.37,2.58,16.18,0,19.15-6.94,3.18-7.48,4.87-15.59,6.58-21.28C405.42,236.89,399.89,230.48,392.14,229.05Z"/><path class="cls-1" d="M291.56,354.23a142.8,142.8,0,0,0-17.74,9c-5.91,3.52-8.33,11-6.35,17.44a16.37,16.37,0,0,0,15.1,11.8c2.06-.43,4.3-.49,6.15-1.36a189.25,189.25,0,0,0,17-8.69,15.59,15.59,0,0,0,5.52-20.66C307.62,354.7,299,351.12,291.56,354.23Z"/><path class="cls-1" d="M350.56,302.24c-9.23,5.49-15.34,14-19.66,23.78-.36.8-.18,1.84-.3,3.36A15.09,15.09,0,0,0,340,343.73c6.07,2.74,12.3,2.24,17-2.56a123.84,123.84,0,0,0,13.52-16.68c3.72-5.45,2.54-13.14-1.82-18.16S356.25,298.86,350.56,302.24Z"/></svg>