<svg id="Layer_1" data-name="Layer 1" xmlns="http://www.w3.org/2000/svg" viewBox="0 0 408.95 408.93"><defs><style>.cls-1{fill:#44263a;}</style></defs><path class="cls-1" d="M394.59,303.67C376,286,358.21,267.44,340,249.31c-19-19-45.07-19-64.19-.14-6.53,6.45-13.06,12.9-19.43,19.51-1.88,1.94-3.18,2.23-5.7.87q-71.23-38.3-109.61-109.41c-1.52-2.81-1.16-4.25,1-6.33q10.36-9.94,20.35-20.29c17.41-18.11,17.2-44.44-.48-62.22q-28.43-28.57-57-57C87.8-2.79,62.85-3.53,44.51,12.2,23.08,30.58,10.85,54.3,4.28,81.25,2.47,88.7,1.49,96.34.13,103.89v23.16c.68,4,1.32,8.06,2,12.08,4.35,24.71,14.27,47.25,27.74,68.16C62.45,257.86,103.34,301,149.84,338.8c34.21,27.83,72,49.46,114.77,61.46,20,5.62,40.35,9.47,61.35,7,30.83-3.64,55.65-17.42,73.56-43.14C412.49,345.47,412.81,320.9,394.59,303.67Zm-15.25,44.57c-11.15,16.72-26.13,28.16-46.27,31.89-6.51,1.21-13.09,2-17,2.63-27.88-1.1-51.67-7.69-74.68-17.54-33.19-14.21-62.78-34.14-89.74-57.91-33-29.11-63.18-60.95-89-96.71-14.77-20.47-27.3-42.2-33.27-67-8.75-36.39-2-69.85,20.15-100,3.49-4.77,8.06-8.86,12.59-12.72C69.8,24.28,79.6,25,86.88,32.23Q115.28,60.57,143.62,89c8.27,8.29,8.4,18.77.17,27.21-8,8.19-16.18,16.19-24.26,24.29-7.57,7.59-9,16.42-4.11,25.83,22.64,43.1,52.71,79.81,93.31,107.22,11.43,7.72,23.45,14.6,35.46,21.43,9.2,5.23,18.34,3.55,25.84-3.92,8-8,16-16,24-24,8.67-8.6,19.1-8.56,27.74.06C340,285.33,358,303.85,376.62,321.73,385.91,330.66,384.63,340.32,379.34,348.24Z"/><path class="cls-1" d="M247.6,63.17a102.82,102.82,0,0,1,10.92,2.16c37.24,10.6,64,33.64,79.88,68.85,4,8.94,6,18.88,8.24,28.51,1.68,7.14,6.87,11.91,14,11.42,6.47-.43,11.57-6.16,11.53-14.62-.49-2.68-1.07-7-2.08-11.27C355.48,86.87,303.23,45.31,251.9,38c-7.39-1.05-14.17,3.47-15.29,10.57C235.51,55.53,240.38,61.93,247.6,63.17Z"/><path class="cls-1" d="M234.68,116.07c1.66.42,3.39.59,5.07,1,27.42,6.51,51.07,31.72,55.83,59.48,1.12,6.54,6.28,11.08,12.61,11.12a12.62,12.62,0,0,0,12.56-11.14,26.17,26.17,0,0,0-1-9C311.74,136.14,293,113.41,264.13,99c-8.25-4.12-16.86-7.1-25-7.9-8-.17-13.53,4.41-14.47,11.12C223.81,108.34,228.17,114.42,234.68,116.07Z"/></svg>