<svg id="Layer_1" data-name="Layer 1" xmlns="http://www.w3.org/2000/svg" viewBox="0 0 408.95 408.93"><defs><style>.cls-1{fill:#44263a;}</style></defs><path class="cls-1" d="M344.91,113.44A139.61,139.61,0,0,0,307,43.2C289.19,25,268.05,12,243.3,5.57,233.72,3.06,223.81,1.82,214.05,0H194.89C188.46,1,182,1.57,175.63,2.92a141.89,141.89,0,0,0-68.55,35.31c-26,24.23-41.29,54.08-45.38,89.35-3.84,33.23,3.42,64.2,21,92.64q56.15,90.66,112.45,181.23c6.28,10.11,16.61,10,22.76-.31q54.7-91.29,109.34-182.62C346.78,185.83,352.73,150.69,344.91,113.44Zm-20.82,35.14c-.66,20.42-6.63,39.43-17.13,57q-49.65,82.92-99.31,165.84c-.33.57-.72,1.1-1.42,2.15-5.51-8.85-10.69-17.18-15.87-25.52q-43.2-69.6-86.41-139.19c-15-24.19-21.83-50.32-18.44-78.71C89.35,97.9,104,71.29,129.11,50.84,155,29.79,184.9,21.06,218,24.8c32.4,3.66,59,18.61,79.54,43.88C316.44,91.88,325.06,118.79,324.09,148.58Z"/><path class="cls-1" d="M204.68,71.87a71.85,71.85,0,1,0,71.63,72.29A71.83,71.83,0,0,0,204.68,71.87Zm-.18,119.8a48,48,0,1,1,47.9-48A48,48,0,0,1,204.5,191.67Z"/></svg>